<svg width="24" height="24" viewBox="0 0 24 24" fill="none" xmlns="http://www.w3.org/2000/svg">
    <mask id="mask0_24_282" style="mask-type:alpha" maskUnits="userSpaceOnUse" x="0" y="0" width="24" height="24">
        <rect width="24" height="24" fill="#D9D9D9"/>
    </mask>
    <g mask="url(#mask0_24_282)">
        <path d="M7 18L7 7.7C7 7.2 7.15833 6.79167 7.475 6.475C7.79167 6.15833 8.2 6 8.7 6L15.65 6C16.15 6 16.5583 6.15834 16.875 6.475C17.1917 6.79167 17.35 7.2 17.35 7.7L17.35 18L14.95 18L14.95 14.15L9.4 14.15L9.4 18L7 18ZM9.4 11.75L14.95 11.75L14.95 8.4L9.4 8.4L9.4 11.75Z" fill="white"/>
        <rect x="3" y="3" width="18" height="18" rx="3" stroke="white" stroke-width="2"/>
    </g>
</svg>
