<svg width="24" height="24" viewBox="0 0 24 24" fill="none" xmlns="http://www.w3.org/2000/svg">
    <mask id="mask0_24_268" style="mask-type:alpha" maskUnits="userSpaceOnUse" x="0" y="0" width="24" height="24">
        <rect width="24" height="24" fill="#D9D9D9"/>
    </mask>
    <g mask="url(#mask0_24_268)">
        <path d="M7 18L7 6L15.65 6C16.15 6 16.5583 6.15834 16.875 6.475C17.1917 6.79167 17.35 7.2 17.35 7.7L17.35 10.3C17.35 10.8 17.1917 11.2083 16.875 11.525C16.5583 11.8417 16.15 12 15.65 12C16.15 12 16.5583 12.1583 16.875 12.475C17.1917 12.7917 17.35 13.2 17.35 13.7L17.35 16.3C17.35 16.8 17.1917 17.2083 16.875 17.525C16.5583 17.8417 16.15 18 15.65 18L7 18ZM9.4 10.8L14.95 10.8L14.95 8.4L9.4 8.4L9.4 10.8ZM9.4 15.6L14.95 15.6L14.95 13.2L9.4 13.2L9.4 15.6Z" fill="white"/>
        <rect x="3" y="3" width="18" height="18" rx="3" stroke="white" stroke-width="2"/>
    </g>
</svg>
