<svg width="24" height="24" viewBox="0 0 24 24" fill="none" xmlns="http://www.w3.org/2000/svg">
    <mask id="mask0_24_292" style="mask-type:alpha" maskUnits="userSpaceOnUse" x="0" y="0" width="24" height="24">
        <rect y="-1.52588e-05" width="24" height="24" fill="#D9D9D9"/>
    </mask>
    <g mask="url(#mask0_24_292)">
        <path d="M8.7 18C8.2 18 7.79166 17.8417 7.475 17.525C7.15833 17.2083 7 16.8 7 16.3L7 7.69999C7 7.19999 7.15833 6.79165 7.475 6.47499C7.79167 6.15832 8.2 5.99998 8.7 5.99999L15.65 5.99999C16.15 5.99999 16.5583 6.15832 16.875 6.47499C17.1917 6.79165 17.35 7.19999 17.35 7.69999L17.35 9.99999L14.95 9.99999L14.95 8.39999L9.4 8.39998L9.4 15.6L14.95 15.6L14.95 14L17.35 14L17.35 16.3C17.35 16.8 17.1917 17.2083 16.875 17.525C16.5583 17.8417 16.15 18 15.65 18L8.7 18Z" fill="white"/>
        <rect x="3" y="2.99998" width="18" height="18" rx="3" stroke="white" stroke-width="2"/>
    </g>
</svg>
